<svg xmlns="http://www.w3.org/2000/svg" version="1.1" xmlns:xlink="http://www.w3.org/1999/xlink" xmlns:svgjs="http://svgjs.dev/svgjs" width="1000" height="1000" viewBox="0 0 1000 1000"><rect width="1000" height="1000" fill="#ffffff"></rect><g transform="matrix(0.7,0,0,0.7,149.5757582517234,446.215252650968)"><svg viewBox="0 0 396 61" data-background-color="#ffffff" preserveAspectRatio="xMidYMid meet" height="154" width="1000" xmlns="http://www.w3.org/2000/svg" xmlns:xlink="http://www.w3.org/1999/xlink"><defs></defs><g id="tight-bounds" transform="matrix(1,0,0,1,0.23999961759648158,-0.06521717726391785)"><svg viewBox="0 0 395.52 61.13043253383179" height="61.13043253383179" width="395.52"><g><svg viewBox="0 0 486.37920898335716 75.1733702988865" height="61.13043253383179" width="395.52"><g transform="matrix(1,0,0,1,0,10.389373174448135)"><svg viewBox="0 0 395.52 54.394623949990226" height="54.394623949990226" width="395.52"><g><svg viewBox="0 0 395.52 54.394623949990226" height="54.394623949990226" width="395.52"><g><svg viewBox="0 0 395.52 54.394623949990226" height="54.394623949990226" width="395.52"><g transform="matrix(1,0,0,1,0,0)"><svg width="395.52" viewBox="4 -35 255.92999267578125 35.20000076293945" height="54.394623949990226" data-palette-color="#111111"><path d="M7.4 0L4 0 4-35 11.25-35Q17.4-35 20.15-33.05L20.15-33.05Q23.35-30.8 23.35-25.35L23.35-25.35Q23.35-16.25 16.35-14.25L16.35-14.25Q14.1-13.6 11.25-13.6L11.25-13.6 7.4-13.6 7.4 0ZM11-32.25L7.4-32.25 7.4-16.35 11-16.35Q15.5-16.35 17.73-18.32 19.95-20.3 19.95-24.78 19.95-29.25 17.73-30.75 15.5-32.25 11-32.25L11-32.25ZM51.85 0L48.55-9.25 33.15-9.25 29.95 0 26.7 0 39.35-35 42.4-35 55.5 0 51.85 0ZM40.7-31.2L34-11.75 47.65-11.75 40.7-31.2ZM80.65-25.6L80.65-25.6Q80.65-18.4 75.7-15.95L75.7-15.95 83.25 0 79.59 0 72.5-14.9Q70.7-14.6 68.55-14.6L68.55-14.6 64.7-14.6 64.7 0 61.3 0 61.3-35 68.55-35Q74.65-35 77.45-33.1L77.45-33.1Q80.65-30.95 80.65-25.6ZM68.3-32.25L64.7-32.25 64.7-17.35 68.3-17.35Q72.75-17.35 75-19.15 77.25-20.95 77.25-25.4L77.25-25.4Q77.25-31.1 72.05-32L72.05-32Q70.4-32.25 68.3-32.25L68.3-32.25ZM92.39 0L88.99 0 88.99-35 92.39-35 92.39-18.3 104.44-35 108.34-35 96.09-18.55 110.74 0 106.84 0 92.39-18.3 92.39 0ZM130.44-20.1L130.44-20.1Q135.99-18.05 135.99-10.85L135.99-10.85Q135.99-7.2 135.17-5.2 134.34-3.2 132.79-2.05L132.79-2.05Q129.94 0 123.89 0L123.89 0 115.64 0 115.64-35 123.14-35Q131.04-35 133.14-31L133.14-31Q133.89-29.6 133.89-27.6 133.89-25.6 132.87-23.5 131.84-21.4 130.44-20.1ZM124.89-18.15L119.04-18.15 119.04-2.75 123.64-2.75Q128.29-2.75 130.19-4L130.19-4Q132.59-5.55 132.59-10.15L132.59-10.15Q132.59-16.4 128.19-17.7L128.19-17.7Q126.74-18.15 124.89-18.15L124.89-18.15ZM128.04-20.7L128.04-20.7Q130.49-23.9 130.49-27 130.49-30.1 128.54-31.18 126.59-32.25 122.89-32.25L122.89-32.25 119.04-32.25 119.04-20.9 125.14-20.9Q126.64-20.9 128.04-20.7ZM164.09-35L167.24-35 167.24-15Q167.24-7.2 163.59-3.25L163.59-3.25Q160.34 0.2 154.66 0.2 148.99 0.2 145.99-2.5L145.99-2.5Q141.99-6.15 141.99-15L141.99-15 141.99-35 145.39-35 145.39-15.05Q145.39-7.8 148.39-4.8L148.39-4.8Q150.64-2.55 154.89-2.55L154.89-2.55Q161.24-2.55 163.34-9.2L163.34-9.2Q164.09-11.55 164.09-15.05L164.09-15.05 164.09-35ZM174.59 0L174.59-35 183.59-35Q194.09-35 197.29-26.2L197.29-26.2Q198.49-23 198.49-17.78 198.49-12.55 197.34-8.97 196.19-5.4 194.09-3.4 191.99-1.4 189.01-0.7 186.03 0 182.34 0L182.34 0 174.59 0ZM183.34-32.25L177.99-32.25 177.99-2.75 182.09-2.75Q184.69-2.75 187.09-3.2L187.09-3.2Q195.09-4.6 195.09-18.05L195.09-18.05Q195.09-25.6 191.59-29.2L191.59-29.2Q188.53-32.25 183.34-32.25L183.34-32.25ZM204.73 0L204.73-35 213.73-35Q224.23-35 227.43-26.2L227.43-26.2Q228.63-23 228.63-17.78 228.63-12.55 227.48-8.97 226.33-5.4 224.23-3.4 222.13-1.4 219.16-0.7 216.18 0 212.48 0L212.48 0 204.73 0ZM213.48-32.25L208.13-32.25 208.13-2.75 212.23-2.75Q214.83-2.75 217.23-3.2L217.23-3.2Q225.23-4.6 225.23-18.05L225.23-18.05Q225.23-25.6 221.73-29.2L221.73-29.2Q218.68-32.25 213.48-32.25L213.48-32.25ZM235.28-35L246.08-14.55 256.43-35 259.93-35 247.68-11.75 247.68 0 244.53 0 244.53-11.8 231.63-35 235.28-35Z" opacity="1" transform="matrix(1,0,0,1,0,0)" fill="#000000" class="undefined-text-0" data-fill-palette-color="primary" id="text-0"></path></svg></g></svg></g></svg></g></svg></g><g transform="matrix(1,0,0,1,408.3612652436179,0)"><svg viewBox="0 0 78.0179437397393 75.1733702988865" height="75.1733702988865" width="78.0179437397393"><g><svg xmlns="http://www.w3.org/2000/svg" xmlns:xlink="http://www.w3.org/1999/xlink" version="1.1" x="0" y="0" viewBox="4.937973976135254 8.223999977111816 90.12396240234375 86.83799743652344" enable-background="new 0 0 100 100" xml:space="preserve" height="75.1733702988865" width="78.0179437397393" class="icon-icon-0" data-fill-palette-color="accent" id="icon-0"><path fill="#000000" d="M83.061 56l-2.895-9.673C78.098 40.536 71.661 36 65.512 36H34.758c-6.15 0-12.587 4.536-14.72 10.531L17.061 56c-6.551 0-12 5.146-12 11.698V75c0 6.551 5.449 12 12 12h3v8.062h9V87h42v8.062h9V87h3c6.551 0 12-5.49 12-12.041V68C95.061 61.449 89.611 56 83.061 56zM25.939 48.412C27.121 45.102 31.545 42 35.061 42h30c3.517 0 8.088 3.102 9.203 6.208L76.061 56h-52L25.939 48.412zM89.061 75c0 3.135-2.865 6-6 6h-66c-3.135 0-6-2.865-6-6v-7c0-3.135 2.865-6 6-6l66 0.014c3.135 0 6 2.852 6 5.986V75z" data-fill-palette-color="accent"></path><g fill="#a0050a" data-fill-palette-color="accent"><circle fill="#000000" cx="24.561" cy="71.5" r="4.5" data-fill-palette-color="accent"></circle></g><g fill="#a0050a" data-fill-palette-color="accent"><circle fill="#000000" cx="75.561" cy="71.5" r="4.5" data-fill-palette-color="accent"></circle></g><path fill="#000000" d="M93.056 22.409L50.061 8.224 6.943 22.409c-1.49 0.456-2.337 2.048-1.882 3.539l0.098 0.316c0.455 1.491 2.048 2.338 3.539 1.882l41.363-13.648 41.241 13.648c1.49 0.456 3.084-0.391 3.539-1.882l0.098-0.316C95.394 24.457 94.546 22.865 93.056 22.409z" data-fill-palette-color="accent"></path></svg></g></svg></g></svg></g></svg><rect width="395.52" height="61.13043253383179" fill="none" stroke="none" visibility="hidden"></rect></g></svg></g></svg>